<svg width="180" height="120" viewBox="0 0 180 120" fill="none" xmlns="http://www.w3.org/2000/svg">
<path d="M118.717 109.711C115.787 109.711 113.024 109.92 110.593 110.289C108.273 108.238 101.647 106.758 93.8349 106.758C91.3314 106.758 88.9509 106.91 86.7941 107.184C84.6199 105.062 77.8747 103.515 69.8884 103.515C60.1453 103.515 52.246 105.818 52.246 108.659C52.246 111.5 60.1453 113.803 69.8884 113.803C72.3919 113.803 74.7724 113.65 76.9293 113.376C76.9914 113.437 77.0572 113.498 77.1268 113.557C78.2748 116.075 85.666 118.017 94.6139 118.017C97.7672 118.017 100.728 117.775 103.29 117.353C106.301 118.932 112.081 120 118.717 120C128.46 120 136.359 117.697 136.359 114.856C136.359 112.015 128.46 109.713 118.717 109.713V109.711Z" fill="#004E60" style="fill:#004E60;fill:color(display-p3 0.0000 0.3059 0.3765);fill-opacity:1;"/>
<path d="M101.683 35.1745C104.817 35.1745 107.71 35.5513 110.041 36.1884V21.6497C110.041 12.3105 102.452 4.74121 93.0919 4.74121H52V26.5195L84.9913 26.2109C86.4922 26.1935 87.7209 27.3958 87.7321 28.893L87.8191 39.6229C88.7111 37.113 94.5779 35.1758 101.683 35.1758V35.1745Z" fill="#68CDB5" style="fill:#68CDB5;fill:color(display-p3 0.4078 0.8039 0.7098);fill-opacity:1;"/>
<path d="M110.041 21.6481V36.1868C113.278 37.0705 115.433 38.455 115.648 40.0266V19.3465C115.648 8.66124 106.965 0 96.2551 0H52V4.73963H93.0919C102.454 4.73963 110.041 12.3102 110.041 21.6481Z" fill="#8CE6D1" style="fill:#8CE6D1;fill:color(display-p3 0.5490 0.9020 0.8196);fill-opacity:1;"/>
<path d="M115.647 40.0282C115.432 38.4566 113.277 37.0722 110.04 36.1884C107.708 35.5514 104.815 35.1746 101.682 35.1746C94.5765 35.1746 88.7098 37.1131 87.8177 39.6217C87.7407 39.8398 87.6997 40.0617 87.6997 40.2873C87.6997 43.1107 93.9603 45.4 101.682 45.4C109.404 45.4 115.664 43.1107 115.664 40.2873C115.664 40.2005 115.658 40.1137 115.647 40.027V40.0282Z" fill="#004E60" style="fill:#004E60;fill:color(display-p3 0.0000 0.3059 0.3765);fill-opacity:1;"/>
<path d="M127.779 97.1059L127.777 94.151C126.237 95.7512 121.606 96.8852 115.984 96.8852C110.362 96.8852 105.361 95.6594 104.022 93.9577V93.4892C104.392 94.2477 105.572 94.9728 107.385 95.5343C109.68 96.2457 112.734 96.6374 115.984 96.6374C119.234 96.6374 122.288 96.2457 124.582 95.5343C126.175 95.041 127.28 94.4212 127.776 93.7631L127.773 91.0561C126.231 92.655 121.602 93.7879 115.982 93.7879C110.363 93.7879 105.36 92.5621 104.02 90.8603V90.3918C104.391 91.1503 105.571 91.8754 107.384 92.4369C109.678 93.1483 112.732 93.54 115.982 93.54C119.233 93.54 122.286 93.1483 124.581 92.4369C126.172 91.9436 127.275 91.3251 127.772 90.6694L127.769 87.7134C126.225 89.311 121.598 90.4426 115.981 90.4426C110.364 90.4426 105.358 89.2168 104.019 87.5151V87.0465C104.389 87.8051 105.57 88.5302 107.382 89.0916C109.677 89.8031 112.731 90.1947 115.981 90.1947C119.231 90.1947 122.285 89.8031 124.58 89.0916C126.168 88.5996 127.27 87.9823 127.768 87.3267L127.766 84.3706C126.22 85.967 121.593 87.0974 115.98 87.0974C110.367 87.0974 105.357 85.8716 104.018 84.1698V83.7013C104.388 84.4598 105.568 85.1849 107.381 85.7464C109.676 86.4578 112.73 86.8495 115.98 86.8495C119.23 86.8495 122.284 86.4578 124.579 85.7464C126.164 85.2555 127.266 84.6383 127.764 83.9851L127.762 81.0278C126.214 82.623 121.589 83.7521 115.979 83.7521C110.368 83.7521 105.356 82.5263 104.017 80.8245V80.356C104.387 81.1146 105.567 81.8396 107.38 82.4011C109.675 83.1125 112.729 83.5042 115.979 83.5042C119.229 83.5042 122.283 83.1125 124.578 82.4011C126.16 81.9103 127.261 81.2955 127.761 80.6423L127.758 77.2363C127.539 79.2418 122.313 80.8456 115.895 80.8456C109.478 80.8456 104.024 79.1711 104.024 77.1062H104.017V97.3116V96.8431C104.387 97.6017 105.567 98.3267 107.38 98.8882C107.387 98.8907 107.402 98.9229 107.425 98.9799H107.689C109.946 99.6319 112.871 99.9913 115.977 99.9913C119.084 99.9913 122.009 99.6331 124.266 98.9799H124.544C124.555 98.9254 124.565 98.8919 124.576 98.8882C126.172 98.3937 127.277 97.7727 127.772 97.1145L127.779 97.1059Z" fill="#2EAFC0" style="fill:#2EAFC0;fill:color(display-p3 0.1804 0.6863 0.7529);fill-opacity:1;"/>
<path d="M115.985 83.7472C121.596 83.7472 126.219 82.618 127.768 81.0229V80.6362C127.267 81.2894 126.168 81.9041 124.584 82.3949C122.289 83.1064 119.235 83.498 115.985 83.498C112.735 83.498 109.681 83.1064 107.386 82.3949C105.573 81.8335 104.393 81.1084 104.023 80.3499V80.8184C105.363 82.5201 110.139 83.7459 115.985 83.7459V83.7472Z" fill="#016B83" style="fill:#016B83;fill:color(display-p3 0.0039 0.4196 0.5137);fill-opacity:1;"/>
<path d="M115.985 87.0938C121.598 87.0938 126.224 85.9635 127.77 84.3671V83.9804C127.271 84.6348 126.17 85.2508 124.584 85.7416C122.289 86.4531 119.235 86.8447 115.985 86.8447C112.735 86.8447 109.681 86.4531 107.386 85.7416C105.573 85.1801 104.393 84.4551 104.023 83.6965V84.165C105.363 85.8668 110.139 87.0926 115.985 87.0926V87.0938Z" fill="#016B83" style="fill:#016B83;fill:color(display-p3 0.0039 0.4196 0.5137);fill-opacity:1;"/>
<path d="M115.985 90.4408C121.601 90.4408 126.229 89.3092 127.773 87.7115V87.3236C127.275 87.9792 126.173 88.5965 124.584 89.0885C122.289 89.8 119.235 90.1916 115.985 90.1916C112.735 90.1916 109.681 89.8 107.386 89.0885C105.573 88.5271 104.393 87.802 104.023 87.0435V87.512C105.363 89.2137 110.139 90.4395 115.985 90.4395V90.4408Z" fill="#016B83" style="fill:#016B83;fill:color(display-p3 0.0039 0.4196 0.5137);fill-opacity:1;"/>
<path d="M115.985 93.7872C121.604 93.7872 126.234 92.6544 127.775 91.0555V90.6663C127.278 91.3232 126.175 91.9417 124.584 92.4338C122.289 93.1452 119.235 93.5369 115.985 93.5369C112.735 93.5369 109.681 93.1452 107.386 92.4338C105.573 91.8723 104.393 91.1472 104.023 90.3887V90.8572C105.363 92.5589 110.139 93.7847 115.985 93.7847V93.7872Z" fill="#016B83" style="fill:#016B83;fill:color(display-p3 0.0039 0.4196 0.5137);fill-opacity:1;"/>
<path d="M115.985 96.8846C121.607 96.8846 126.239 95.7518 127.778 94.1504V93.7612C127.282 94.4181 126.178 95.0378 124.585 95.5324C122.29 96.2438 119.236 96.6355 115.986 96.6355C112.736 96.6355 109.682 96.2438 107.387 95.5324C105.575 94.9709 104.394 94.2458 104.024 93.4873V93.9558C105.365 95.6576 110.14 96.8834 115.986 96.8834L115.985 96.8846Z" fill="#016B83" style="fill:#016B83;fill:color(display-p3 0.0039 0.4196 0.5137);fill-opacity:1;"/>
<path d="M127.779 97.104C127.285 97.7621 126.179 98.3831 124.584 98.8776C124.482 98.9086 124.377 98.9396 124.273 98.9693C122.017 99.6213 119.091 99.9807 115.985 99.9807C112.879 99.9807 109.953 99.6225 107.697 98.9693C107.592 98.9396 107.488 98.9086 107.386 98.8776C105.573 98.3161 104.393 97.5911 104.023 96.8325V97.301C104.522 97.9356 105.501 98.5045 106.834 98.9681C107.049 99.0424 107.277 99.1143 107.509 99.1825C109.704 99.8332 112.671 100.229 115.985 100.229C119.298 100.229 122.321 99.8258 124.523 99.1639C124.733 99.1007 124.939 99.0362 125.134 98.9681C126.332 98.5516 127.244 98.0509 127.779 97.4931V97.1027V97.104Z" fill="#016B83" style="fill:#016B83;fill:color(display-p3 0.0039 0.4196 0.5137);fill-opacity:1;"/>
<path d="M115.901 80.8382C122.319 80.8382 127.545 79.2343 127.764 77.2289C127.769 77.1855 127.772 77.1422 127.772 77.0988C127.772 75.0339 122.457 73.3594 115.9 73.3594C109.344 73.3594 104.029 75.0339 104.029 77.0988C104.029 79.1637 109.344 80.8382 115.9 80.8382H115.901ZM115.869 74.0832C120.732 74.0832 125.761 75.1553 125.761 76.95C125.761 78.7448 120.732 79.8169 115.869 79.8169C111.006 79.8169 105.977 78.7448 105.977 76.95C105.977 75.1553 111.006 74.0832 115.869 74.0832Z" fill="#016B83" style="fill:#016B83;fill:color(display-p3 0.0039 0.4196 0.5137);fill-opacity:1;"/>
<path d="M115.869 79.4715C121.142 79.4715 125.416 78.3423 125.416 76.9493C125.416 75.5563 121.142 74.427 115.869 74.427C110.597 74.427 106.322 75.5563 106.322 76.9493C106.322 78.3423 110.597 79.4715 115.869 79.4715Z" fill="#016B83" style="fill:#016B83;fill:color(display-p3 0.0039 0.4196 0.5137);fill-opacity:1;"/>
<path d="M115.869 79.8181C120.732 79.8181 125.762 78.746 125.762 76.9513C125.762 75.1566 120.732 74.0845 115.869 74.0845C111.007 74.0845 105.977 75.1566 105.977 76.9513C105.977 78.746 111.007 79.8181 115.869 79.8181ZM115.869 74.429C121.58 74.429 125.416 75.7329 125.416 76.9513C125.416 78.1697 121.58 79.4736 115.869 79.4736C110.159 79.4736 106.323 78.1697 106.323 76.9513C106.323 75.7329 110.159 74.429 115.869 74.429Z" fill="#004E60" style="fill:#004E60;fill:color(display-p3 0.0000 0.3059 0.3765);fill-opacity:1;"/>
<path d="M94.8065 60.4446L94.8513 60.4694C94.8376 60.4607 94.8239 60.4533 94.8103 60.4446H94.8065Z" fill="#99AF73" style="fill:#99AF73;fill:color(display-p3 0.6000 0.6863 0.4510);fill-opacity:1;"/>
<path d="M105.332 40.4624V40.4674C105.347 40.4736 105.362 40.4798 105.376 40.486L105.332 40.4624Z" fill="#99AF73" style="fill:#99AF73;fill:color(display-p3 0.6000 0.6863 0.4510);fill-opacity:1;"/>
<path d="M108.933 42.6987C108.435 42.2203 107.889 41.8348 107.31 41.5324L106.154 40.9065C106.56 41.1606 106.946 41.458 107.309 41.8051C108.127 42.4075 108.825 43.1809 109.316 44.0671C111.435 47.9887 110.476 52.9998 107.922 56.4925C106.297 58.7396 103.863 60.548 101.091 61.0313C101.097 61.0301 101.102 61.0276 101.108 61.0252C99.0346 61.6684 96.9249 61.5594 95.1396 60.6285L96.51 61.3834C96.5746 61.4205 96.6404 61.4565 96.7063 61.4912L96.7411 61.5098V61.5073C100.325 63.3975 105.236 61.956 108.522 57.7493C112.331 52.8746 112.515 46.1345 108.933 42.6963V42.6987Z" fill="#99AF73" style="fill:#99AF73;fill:color(display-p3 0.6000 0.6863 0.4510);fill-opacity:1;"/>
<path d="M101.108 61.0262C102.04 60.73 102.916 60.264 103.733 59.7298C108.903 56.3424 111.835 48.3975 108.232 42.9539C107.95 42.5523 107.658 42.1495 107.308 41.8062C106.946 41.4591 106.559 41.1617 106.152 40.9076C105.9 40.7502 105.641 40.6101 105.375 40.4874C105.361 40.4812 105.346 40.475 105.332 40.4688C101.784 38.8637 97.0964 40.3474 93.9232 44.409C90.1139 49.2837 89.9301 56.0238 93.512 59.4621C93.9158 59.8488 94.3506 60.1747 94.8078 60.4462C94.8215 60.4549 94.8352 60.4635 94.8488 60.471C94.9445 60.5267 95.0402 60.5788 95.1383 60.6296C96.9237 61.5604 99.0333 61.6695 101.107 61.0262H101.108Z" fill="#A3DC1A" style="fill:#A3DC1A;fill:color(display-p3 0.6392 0.8627 0.1020);fill-opacity:1;"/>
<path d="M98.8743 59.571C97.2828 59.571 95.8118 58.9934 94.6923 57.9188C91.7267 55.0731 91.8683 49.4906 95.0067 45.4736C96.7436 43.2512 99.0992 41.8792 101.471 41.7106C103.244 41.5842 104.898 42.1655 106.129 43.3467C109.095 46.1925 108.953 51.7749 105.815 55.7919C104.078 58.0143 101.722 59.3863 99.3489 59.5549C99.1899 59.5661 99.0309 59.5722 98.8731 59.5722L98.8743 59.571ZM101.964 42.075C101.81 42.075 101.655 42.08 101.498 42.0924C99.2347 42.2535 96.9784 43.5723 95.3086 45.7091C92.287 49.5761 92.1292 54.9293 94.957 57.6424C96.1249 58.7629 97.6344 59.2921 99.3216 59.1719C101.585 59.0108 103.842 57.692 105.511 55.5552C108.533 51.6881 108.689 46.335 105.863 43.6218C104.803 42.6055 103.464 42.075 101.964 42.075Z" fill="#D9FF6F" style="fill:#D9FF6F;fill:color(display-p3 0.8510 1.0000 0.4353);fill-opacity:1;"/>
<path opacity="0.61" d="M109.426 51.5566C107.226 54.3565 105.32 57.4118 103.039 60.1547C103.275 60.0196 103.506 59.877 103.734 59.7295C106.473 57.9348 108.583 54.861 109.426 51.5566Z" fill="#C3FF34" style="fill:#C3FF34;fill:color(display-p3 0.7647 1.0000 0.2039);fill-opacity:1;"/>
<path opacity="0.61" d="M103.545 44.1412C104.16 43.3715 104.798 42.6042 105.5 41.9126C105.725 41.6908 106.113 41.3375 106.519 41.1529C105.808 40.6434 105.029 40.2828 104.208 40.0696C104.107 40.1563 104.01 40.2443 103.919 40.3348C102.49 41.7416 101.262 43.3913 100.122 45.0323C97.822 48.3392 95.931 51.9026 93.789 55.3085C93.2722 56.1291 92.7466 56.9583 92.1913 57.7651C92.5541 58.3886 92.9926 58.9612 93.5132 59.4607C93.5493 59.4954 93.5865 59.5264 93.6238 59.5598C93.7294 59.4136 93.835 59.2673 93.9394 59.1198C96.2428 55.8551 98.1276 52.3252 100.236 48.9366C101.261 47.2881 102.333 45.6595 103.545 44.1412Z" fill="#C3FF34" style="fill:#C3FF34;fill:color(display-p3 0.7647 1.0000 0.2039);fill-opacity:1;"/>
<path opacity="0.61" d="M95.9373 49.5908C96.4976 48.6464 97.0903 47.7242 97.6829 46.7996C98.2296 45.9481 98.7178 44.9764 98.6383 43.9352C98.5625 42.9474 98.0643 42.0302 97.1462 41.5927C97.1014 41.5716 97.0567 41.553 97.012 41.5344C96.0963 42.1368 95.2229 42.8966 94.429 43.8038C94.834 43.67 95.249 43.5721 95.6503 43.5448C96.4827 43.4878 96.5361 44.1385 96.2554 44.7991C95.8503 45.7485 95.1409 46.6087 94.6004 47.4862C94.0401 48.396 93.5009 49.3194 92.9828 50.2539C92.2883 51.507 91.6323 52.7824 91.0161 54.0751C91.1477 55.2476 91.4646 56.3582 91.9677 57.351C92.2448 56.7139 92.5306 56.0818 92.8263 55.4546C93.7705 53.4529 94.8092 51.4958 95.9385 49.5921L95.9373 49.5908Z" fill="#C3FF34" style="fill:#C3FF34;fill:color(display-p3 0.7647 1.0000 0.2039);fill-opacity:1;"/>
<path opacity="0.61" d="M107.566 42.0808C107.463 42.3696 107.287 42.646 107.155 42.8108C106.568 43.557 105.792 44.173 105.134 44.8559C103.744 46.2962 102.465 47.8455 101.297 49.4704C98.9938 52.6719 97.1724 56.2154 95.8753 59.9375C95.7759 60.2226 95.6665 60.5213 95.556 60.8299C96.2492 61.1348 96.9835 61.3232 97.7426 61.3976C97.9402 60.784 98.1526 60.1742 98.38 59.5719C99.7504 55.9428 101.701 52.4897 104.098 49.4369C105.323 47.8752 106.683 46.4536 108.099 45.0654C108.379 44.7915 108.651 44.4779 108.897 44.1408C108.707 43.7355 108.487 43.3388 108.234 42.9559C108.024 42.6572 107.808 42.3572 107.566 42.0821V42.0808Z" fill="#C3FF34" style="fill:#C3FF34;fill:color(display-p3 0.7647 1.0000 0.2039);fill-opacity:1;"/>
<path d="M109.316 44.0679C108.824 43.1817 108.127 42.4083 107.309 41.8059C107.399 41.8939 107.484 41.9856 107.566 42.0798C107.807 42.355 108.024 42.6549 108.234 42.9536C108.487 43.3366 108.707 43.7332 108.897 44.1385C109.978 46.4414 110.064 49.0641 109.428 51.5566C108.584 54.8597 106.473 57.9348 103.735 59.7295C103.507 59.877 103.276 60.0195 103.04 60.1546C102.426 60.5079 101.783 60.8115 101.11 61.026C101.103 61.0272 101.098 61.0297 101.092 61.0322C103.864 60.5488 106.298 58.7417 107.923 56.4933C110.477 53.0006 111.437 47.9883 109.317 44.0679H109.316Z" fill="#F2F8F3" style="fill:#F2F8F3;fill:color(display-p3 0.9490 0.9725 0.9529);fill-opacity:1;"/>
<path d="M101.63 68.2632C101.63 70.3281 96.3148 72.0026 89.7585 72.0026C83.2022 72.0026 77.8871 70.3281 77.8871 68.2632L77.8934 105.774C78.0834 107.787 83.3227 109.4 89.7585 109.4C96.1943 109.4 101.434 107.787 101.624 105.774L101.646 68.2632H101.63Z" fill="#FFD7F0" style="fill:#FFD7F0;fill:color(display-p3 1.0000 0.8431 0.9412);fill-opacity:1;"/>
<path d="M89.76 72.003C96.3163 72.003 101.631 70.3288 101.631 68.2636C101.631 66.1984 96.3163 64.5242 89.76 64.5242C83.2036 64.5242 77.8886 66.1984 77.8886 68.2636C77.8886 70.3288 83.2036 72.003 89.76 72.003Z" fill="#FFA9DF" style="fill:#FFA9DF;fill:color(display-p3 1.0000 0.6627 0.8745);fill-opacity:1;"/>
<path d="M89.6543 71.0217C84.7914 71.0217 79.7621 69.9496 79.7621 68.1549C79.7621 66.3602 84.7914 65.2881 89.6543 65.2881C94.5171 65.2881 99.5465 66.3602 99.5465 68.1549C99.5465 69.9496 94.5171 71.0217 89.6543 71.0217ZM89.6543 65.6326C83.9441 65.6326 80.1075 66.9365 80.1075 68.1549C80.1075 69.3733 83.9441 70.6772 89.6543 70.6772C95.3645 70.6772 99.2011 69.3733 99.2011 68.1549C99.2011 66.9365 95.3645 65.6326 89.6543 65.6326Z" fill="#FFD7F0" style="fill:#FFD7F0;fill:color(display-p3 1.0000 0.8431 0.9412);fill-opacity:1;"/>
<path d="M98.4034 74.2412C96.1087 74.9527 93.0548 75.3443 89.8046 75.3443C86.5544 75.3443 83.5005 74.9527 81.2058 74.2412C79.4639 73.7021 78.306 73.0117 77.8898 72.2854V72.7229C79.2912 74.3949 84.0248 75.5935 89.8046 75.5935C95.5844 75.5935 100.155 74.4358 101.645 72.8084V72.4031C101.175 73.0848 100.051 73.7306 98.4034 74.24V74.2412Z" fill="#FFA9DF" style="fill:#FFA9DF;fill:color(display-p3 1.0000 0.6627 0.8745);fill-opacity:1;"/>
<path d="M98.4034 77.5884C96.1087 78.2998 93.0548 78.6915 89.8046 78.6915C86.5544 78.6915 83.5006 78.2998 81.2058 77.5884C79.4652 77.0492 78.3072 76.3589 77.8898 75.6338V76.0713C79.2912 77.7433 84.0249 78.9419 89.8046 78.9419C95.5844 78.9419 100.152 77.7855 101.642 76.1593V75.7553C101.172 76.4369 100.048 77.0802 98.4034 77.5896V77.5884Z" fill="#FFA9DF" style="fill:#FFA9DF;fill:color(display-p3 1.0000 0.6627 0.8745);fill-opacity:1;"/>
<path d="M98.4033 80.9341C96.1086 81.6455 93.0547 82.0372 89.8045 82.0372C86.5544 82.0372 83.5005 81.6455 81.2057 80.9341C79.4651 80.3949 78.3084 79.7058 77.8909 78.9807V79.417C79.2936 81.089 84.026 82.2863 89.8045 82.2863C95.583 82.2863 100.146 81.1311 101.641 79.505V79.1009C101.169 79.7814 100.046 80.4234 98.4046 80.9328L98.4033 80.9341Z" fill="#FFA9DF" style="fill:#FFA9DF;fill:color(display-p3 1.0000 0.6627 0.8745);fill-opacity:1;"/>
<path d="M98.4033 84.281C96.1086 84.9924 93.0547 85.3841 89.8045 85.3841C86.5544 85.3841 83.5005 84.9924 81.2057 84.281C79.4663 83.7418 78.3096 83.0527 77.8909 82.3276V82.7639C79.2949 84.4359 84.026 85.6332 89.8045 85.6332C95.583 85.6332 100.143 84.4781 101.639 82.8544V82.4516C101.165 83.1308 100.043 83.7728 98.4033 84.281Z" fill="#FFA9DF" style="fill:#FFA9DF;fill:color(display-p3 1.0000 0.6627 0.8745);fill-opacity:1;"/>
<path d="M98.4033 87.3803C96.1085 88.0918 93.0546 88.4834 89.8045 88.4834C86.5543 88.4834 83.5004 88.0918 81.2056 87.3803C79.4675 86.8412 78.3095 86.1533 77.8921 85.4282V85.8645C79.296 87.5353 84.0272 88.7326 89.8057 88.7326C95.5842 88.7326 100.14 87.5787 101.637 85.9562V85.5534C101.163 86.2314 100.042 86.8722 98.4045 87.3803H98.4033Z" fill="#FFA9DF" style="fill:#FFA9DF;fill:color(display-p3 1.0000 0.6627 0.8745);fill-opacity:1;"/>
<path d="M98.4033 90.7258C96.1085 91.4372 93.0546 91.8289 89.8044 91.8289C86.5543 91.8289 83.5004 91.4372 81.2056 90.7258C79.4675 90.1879 78.3108 89.4987 77.8921 88.7749V89.2112C79.2973 90.882 84.0272 92.0793 89.8044 92.0793C95.5817 92.0793 100.135 90.9266 101.635 89.3054V88.9038C101.159 89.5805 100.04 90.2213 98.4033 90.727V90.7258Z" fill="#FFA9DF" style="fill:#FFA9DF;fill:color(display-p3 1.0000 0.6627 0.8745);fill-opacity:1;"/>
<path d="M98.4033 93.8251C96.1085 94.5366 93.0546 94.9282 89.8044 94.9282C86.5543 94.9282 83.5004 94.5366 81.2056 93.8251C79.4687 93.2872 78.312 92.5981 77.8921 91.8755V92.3105C79.2973 93.9813 84.0284 95.1774 89.8044 95.1774C95.5805 95.1774 100.131 94.0259 101.632 92.4047V92.0032C101.156 92.6799 100.037 93.3182 98.4033 93.8239V93.8251Z" fill="#FFA9DF" style="fill:#FFA9DF;fill:color(display-p3 1.0000 0.6627 0.8745);fill-opacity:1;"/>
<path d="M98.4035 97.1704C96.1087 97.8818 93.0548 98.2735 89.8047 98.2735C86.5545 98.2735 83.5006 97.8818 81.2058 97.1704C79.4689 96.6324 78.3135 95.9445 77.8935 95.2207V95.6557C79.3 97.3253 84.0299 98.5226 89.8047 98.5226C95.5794 98.5226 100.128 97.3724 101.631 95.7524V95.3521C101.154 96.0276 100.035 96.6647 98.4035 97.1704Z" fill="#FFA9DF" style="fill:#FFA9DF;fill:color(display-p3 1.0000 0.6627 0.8745);fill-opacity:1;"/>
<path d="M98.4035 100.866C96.1087 101.578 93.0548 101.969 89.8047 101.969C86.5545 101.969 83.5006 101.578 81.2058 100.866C79.4702 100.328 78.3147 99.6416 77.8935 98.9177V99.3528C79.3 101.022 84.0299 102.218 89.8047 102.218C95.5794 102.218 100.123 101.069 101.629 99.4507V99.0503C101.15 99.7246 100.032 100.36 98.4035 100.866Z" fill="#FFA9DF" style="fill:#FFA9DF;fill:color(display-p3 1.0000 0.6627 0.8745);fill-opacity:1;"/>
<path d="M89.8046 105.565C95.4638 105.565 100.119 104.416 101.626 102.799V102.4C101.147 103.073 100.03 103.708 98.4034 104.212C96.1086 104.923 93.0548 105.315 89.8046 105.315C86.5544 105.315 83.5005 104.923 81.2058 104.212C79.4713 103.674 78.3146 102.987 77.8947 102.264V102.698C79.3024 104.368 84.031 105.564 89.8046 105.564V105.565Z" fill="#FFA9DF" style="fill:#FFA9DF;fill:color(display-p3 1.0000 0.6627 0.8745);fill-opacity:1;"/>
<path d="M80.1585 88.9118V107.166C80.1585 107.166 80.1423 107.316 80.1423 107.393C80.1423 107.537 80.115 107.679 80.0653 107.819C81.0443 108.256 82.3116 108.623 83.7801 108.893C82.7924 102.209 80.7014 88.1693 80.1597 85.3818V88.9118H80.1585Z" fill="#FFA9DF" style="fill:#FFA9DF;fill:color(display-p3 1.0000 0.6627 0.8745);fill-opacity:1;"/>
<path d="M59.8299 103.784C62.0861 104.495 65.089 104.886 68.2845 104.886C71.4801 104.886 74.483 104.494 76.7392 103.784C78.8054 103.133 80.0354 102.262 80.1584 101.374V98.9512C79.0141 100.733 74.2084 102.035 68.2845 102.035C62.3607 102.035 57.5264 100.726 56.4008 98.9351V101.248C56.4206 102.179 57.6668 103.102 59.8299 103.783V103.784Z" fill="#8CE6D1" style="fill:#8CE6D1;fill:color(display-p3 0.5490 0.9020 0.8196);fill-opacity:1;"/>
<path d="M59.8299 100.685C62.0861 101.396 65.089 101.787 68.2845 101.787C71.4801 101.787 74.483 101.395 76.7392 100.685C78.8054 100.034 80.0354 99.1629 80.1584 98.2755V95.6045C79.0141 97.3868 74.2084 98.6882 68.2845 98.6882C62.3607 98.6882 57.5264 97.3794 56.4008 95.5884V98.1491C56.4206 99.0799 57.6668 100.003 59.8299 100.684V100.685Z" fill="#8CE6D1" style="fill:#8CE6D1;fill:color(display-p3 0.5490 0.9020 0.8196);fill-opacity:1;"/>
<path d="M59.8299 97.338C62.0861 98.0495 65.089 98.4399 68.2845 98.4399C71.4801 98.4399 74.483 98.0483 76.7392 97.338C78.8054 96.6873 80.0354 95.816 80.1584 94.9286V92.2576C79.0141 94.0399 74.2084 95.3413 68.2845 95.3413C62.3607 95.3413 57.5264 94.0325 56.4008 92.2415V94.8022C56.4206 95.733 57.6668 96.6564 59.8299 97.3368V97.338Z" fill="#8CE6D1" style="fill:#8CE6D1;fill:color(display-p3 0.5490 0.9020 0.8196);fill-opacity:1;"/>
<path d="M59.8299 93.9928C62.0861 94.7043 65.089 95.0947 68.2845 95.0947C71.4801 95.0947 74.483 94.703 76.7392 93.9928C78.8054 93.3421 80.0354 92.4708 80.1584 91.5834V88.9124C79.0141 90.6947 74.2084 91.9961 68.2845 91.9961C62.3607 91.9961 57.5264 90.6872 56.4008 88.8962V91.4569C56.4206 92.3878 57.6668 93.3111 59.8299 93.9916V93.9928Z" fill="#8CE6D1" style="fill:#8CE6D1;fill:color(display-p3 0.5490 0.9020 0.8196);fill-opacity:1;"/>
<path d="M59.8299 107.131C62.0861 107.842 65.089 108.232 68.2845 108.232C71.4801 108.232 74.483 107.841 76.7392 107.131C78.8054 106.48 80.0354 105.608 80.1584 104.721V102.05C79.0141 103.832 74.2084 105.134 68.2845 105.134C62.3607 105.134 57.5264 103.825 56.4008 102.034V104.595C56.4206 105.525 57.6668 106.449 59.8299 107.129V107.131Z" fill="#8CE6D1" style="fill:#8CE6D1;fill:color(display-p3 0.5490 0.9020 0.8196);fill-opacity:1;"/>
<path d="M59.8299 90.6449C62.0862 91.3563 65.0891 91.7468 68.2846 91.7468C71.4801 91.7468 74.4831 91.3551 76.7393 90.6449C78.8055 89.9942 80.0355 89.1229 80.1585 88.2354V85.293H80.1423C80.1423 87.3579 74.8272 89.0324 68.271 89.0324C61.7147 89.0324 56.3996 87.3579 56.3996 85.293V88.109C56.4195 89.0398 57.6656 89.9632 59.8287 90.6436L59.8299 90.6449Z" fill="#8CE6D1" style="fill:#8CE6D1;fill:color(display-p3 0.5490 0.9020 0.8196);fill-opacity:1;"/>
<path d="M80.1422 107.394C80.1422 107.318 80.1584 107.167 80.1584 107.167V105.397C79.0141 107.179 74.2084 108.481 68.2845 108.481C62.3607 108.481 57.5264 107.172 56.4008 105.381V107.394C56.4008 109.459 61.7158 111.133 68.2721 111.133C74.3699 111.133 79.3943 109.684 80.0664 107.82C80.1174 107.68 80.1435 107.537 80.1435 107.394H80.1422Z" fill="#8CE6D1" style="fill:#8CE6D1;fill:color(display-p3 0.5490 0.9020 0.8196);fill-opacity:1;"/>
<path d="M68.1605 87.7818C73.4331 87.7818 77.7073 86.6526 77.7073 85.2596C77.7073 83.8666 73.4331 82.7373 68.1605 82.7373C62.888 82.7373 58.6137 83.8666 58.6137 85.2596C58.6137 86.6526 62.888 87.7818 68.1605 87.7818Z" fill="#2EAFC0" style="fill:#2EAFC0;fill:color(display-p3 0.1804 0.6863 0.7529);fill-opacity:1;"/>
<path d="M68.2724 89.0345C74.8287 89.0345 80.1438 87.36 80.1438 85.2951C80.1438 83.2302 74.8287 81.5557 68.2724 81.5557C61.7161 81.5557 56.401 83.2302 56.401 85.2951C56.401 87.36 61.7161 89.0345 68.2724 89.0345ZM68.1618 82.3935C73.0247 82.3935 78.054 83.4656 78.054 85.2604C78.054 87.0551 73.0247 88.1272 68.1618 88.1272C63.299 88.1272 58.2697 87.0551 58.2697 85.2604C58.2697 83.4656 63.299 82.3935 68.1618 82.3935Z" fill="#2EAFC0" style="fill:#2EAFC0;fill:color(display-p3 0.1804 0.6863 0.7529);fill-opacity:1;"/>
<path d="M68.1604 88.1255C73.0232 88.1255 78.0526 87.0534 78.0526 85.2587C78.0526 83.464 73.0232 82.3918 68.1604 82.3918C63.2975 82.3918 58.2682 83.464 58.2682 85.2587C58.2682 87.0534 63.2975 88.1255 68.1604 88.1255ZM68.1604 82.7364C73.8706 82.7364 77.7072 84.0403 77.7072 85.2587C77.7072 86.4771 73.8706 87.7809 68.1604 87.7809C62.4502 87.7809 58.6136 86.4771 58.6136 85.2587C58.6136 84.0403 62.4502 82.7364 68.1604 82.7364Z" fill="#016B83" style="fill:#016B83;fill:color(display-p3 0.0039 0.4196 0.5137);fill-opacity:1;"/>
<path d="M68.2845 91.9962C74.2084 91.9962 79.0154 90.6948 80.1584 88.9125V88.237C80.0341 89.1244 78.8041 89.9958 76.7392 90.6465C74.483 91.3579 71.4801 91.7483 68.2845 91.7483C65.089 91.7483 62.0861 91.3567 59.8299 90.6465C57.6668 89.9648 56.4194 89.0426 56.4008 88.1118V88.8976C57.5264 90.6886 62.3433 91.9975 68.2845 91.9975V91.9962Z" fill="#2EAFC0" style="fill:#2EAFC0;fill:color(display-p3 0.1804 0.6863 0.7529);fill-opacity:1;"/>
<path d="M68.2845 95.3415C74.2084 95.3415 79.0154 94.04 80.1584 92.2577V91.5822C80.0341 92.4697 78.8041 93.341 76.7392 93.9917C74.483 94.7031 71.4801 95.0936 68.2845 95.0936C65.089 95.0936 62.0861 94.7019 59.8299 93.9917C57.6668 93.31 56.4194 92.3879 56.4008 91.457V92.2428C57.5264 94.0338 62.3433 95.3427 68.2845 95.3427V95.3415Z" fill="#2EAFC0" style="fill:#2EAFC0;fill:color(display-p3 0.1804 0.6863 0.7529);fill-opacity:1;"/>
<path d="M68.2845 98.6884C74.2084 98.6884 79.0154 97.387 80.1584 95.6046V94.9291C80.0341 95.8166 78.8041 96.6879 76.7392 97.3386C74.483 98.0501 71.4801 98.4405 68.2845 98.4405C65.089 98.4405 62.0861 98.0488 59.8299 97.3386C57.6668 96.6569 56.4194 95.7348 56.4008 94.804V95.5898C57.5264 97.3808 62.3433 98.6896 68.2845 98.6896V98.6884Z" fill="#2EAFC0" style="fill:#2EAFC0;fill:color(display-p3 0.1804 0.6863 0.7529);fill-opacity:1;"/>
<path d="M68.2845 102.035C74.2084 102.035 79.0154 100.734 80.1584 98.9516V98.2761C80.0341 99.1635 78.8041 100.035 76.7392 100.686C74.483 101.397 71.4801 101.787 68.2845 101.787C65.089 101.787 62.0861 101.396 59.8299 100.686C57.6668 100.004 56.4194 99.0817 56.4008 98.1509V98.9367C57.5264 100.728 62.3433 102.037 68.2845 102.037V102.035Z" fill="#2EAFC0" style="fill:#2EAFC0;fill:color(display-p3 0.1804 0.6863 0.7529);fill-opacity:1;"/>
<path d="M68.2845 105.134C74.2084 105.134 79.0154 103.833 80.1584 102.05V101.375C80.0341 102.262 78.8041 103.134 76.7392 103.784C74.483 104.496 71.4801 104.886 68.2845 104.886C65.089 104.886 62.0861 104.495 59.8299 103.784C57.6668 103.103 56.4194 102.181 56.4008 101.25V102.036C57.5264 103.827 62.3433 105.135 68.2845 105.135V105.134Z" fill="#2EAFC0" style="fill:#2EAFC0;fill:color(display-p3 0.1804 0.6863 0.7529);fill-opacity:1;"/>
<path d="M68.2845 108.481C74.2084 108.481 79.0154 107.179 80.1584 105.397V104.722C80.0341 105.609 78.8041 106.48 76.7392 107.131C74.483 107.843 71.4801 108.233 68.2845 108.233C65.089 108.233 62.0861 107.841 59.8299 107.131C57.6668 106.449 56.4194 105.527 56.4008 104.596V105.382C57.5264 107.173 62.3433 108.482 68.2845 108.482V108.481Z" fill="#2EAFC0" style="fill:#2EAFC0;fill:color(display-p3 0.1804 0.6863 0.7529);fill-opacity:1;"/>
<path d="M108.688 83.2205C108.688 85.2854 103.373 86.9599 96.8169 86.9599C90.2606 86.9599 84.9455 85.2854 84.9455 83.2205L84.9679 111.893C85.3394 113.852 90.5016 115.405 96.8169 115.405C103.132 115.405 108.293 113.852 108.666 111.893L108.704 83.2205H108.688Z" fill="#FF945A" style="fill:#FF945A;fill:color(display-p3 1.0000 0.5804 0.3529);fill-opacity:1;"/>
<path d="M96.8168 86.9603C103.373 86.9603 108.688 85.2858 108.688 83.2208C108.688 81.1559 103.373 79.4814 96.8168 79.4814C90.2605 79.4814 84.9454 81.1559 84.9454 83.2208C84.9454 85.2858 90.2605 86.9603 96.8168 86.9603Z" fill="#FF4F40" style="fill:#FF4F40;fill:color(display-p3 1.0000 0.3098 0.2510);fill-opacity:1;"/>
<path d="M96.7362 85.8938C91.8733 85.8938 86.844 84.8217 86.844 83.027C86.844 81.2323 91.8733 80.1602 96.7362 80.1602C101.599 80.1602 106.628 81.2323 106.628 83.027C106.628 84.8217 101.599 85.8938 96.7362 85.8938ZM96.7362 80.5047C91.026 80.5047 87.1894 81.8086 87.1894 83.027C87.1894 84.2454 91.026 85.5493 96.7362 85.5493C102.446 85.5493 106.283 84.2454 106.283 83.027C106.283 81.8086 102.446 80.5047 96.7362 80.5047Z" fill="#FFA9DF" style="fill:#FFA9DF;fill:color(display-p3 1.0000 0.6627 0.8745);fill-opacity:1;"/>
<path d="M84.9493 86.8977C86.2936 88.5982 91.067 89.8215 96.9089 89.8215C102.751 89.8215 107.159 88.6887 108.699 87.0898V86.7006C108.204 87.3575 107.099 87.9772 105.508 88.4693C103.213 89.1807 100.159 89.5724 96.9089 89.5724C93.6587 89.5724 90.6048 89.1807 88.31 88.4693C86.5023 87.9091 85.3233 87.1865 84.9493 86.4304V86.8977Z" fill="#FF4F40" style="fill:#FF4F40;fill:color(display-p3 1.0000 0.3098 0.2510);fill-opacity:1;"/>
<path d="M96.9075 93.1689C102.522 93.1689 107.149 92.0385 108.694 90.4421V90.0541C108.196 90.7086 107.094 91.3258 105.506 91.8179C103.212 92.5293 100.158 92.921 96.9075 92.921C93.6573 92.921 90.6034 92.5293 88.3087 91.8179C86.5047 91.2589 85.3269 90.5388 84.9504 89.7839V90.2487C86.2985 91.9468 91.0694 93.1701 96.9075 93.1701V93.1689Z" fill="#FF4F40" style="fill:#FF4F40;fill:color(display-p3 1.0000 0.3098 0.2510);fill-opacity:1;"/>
<path d="M96.9076 96.516C102.516 96.516 107.139 95.3881 108.69 93.7929V93.4062C108.189 94.0594 107.089 94.6741 105.506 95.1637C103.212 95.8752 100.158 96.2668 96.9076 96.2668C93.6575 96.2668 90.6036 95.8752 88.3088 95.1637C86.5098 94.606 85.3332 93.8871 84.953 93.136V93.5995C86.3048 95.2963 91.0732 96.5172 96.9076 96.5172V96.516Z" fill="#FF4F40" style="fill:#FF4F40;fill:color(display-p3 1.0000 0.3098 0.2510);fill-opacity:1;"/>
<path d="M96.9075 99.8623C102.511 99.8623 107.13 98.7357 108.684 97.1442V96.7575C108.182 97.4082 107.084 98.0205 105.506 98.5101C103.212 99.2215 100.158 99.6132 96.9075 99.6132C93.6573 99.6132 90.6034 99.2215 88.3087 98.5101C86.5134 97.9536 85.338 97.2372 84.9554 96.4861V96.9472C86.3108 98.6427 91.0768 99.8611 96.9075 99.8611V99.8623Z" fill="#FF4F40" style="fill:#FF4F40;fill:color(display-p3 1.0000 0.3098 0.2510);fill-opacity:1;"/>
<path d="M96.9076 102.961C102.506 102.961 107.123 101.836 108.681 100.246V99.8608C108.176 100.509 107.081 101.12 105.506 101.607C103.212 102.319 100.158 102.71 96.9076 102.71C93.6574 102.71 90.6035 102.319 88.3088 101.607C86.5172 101.052 85.3431 100.337 84.958 99.5881V100.048C86.3159 101.742 91.0806 102.959 96.9076 102.959V102.961Z" fill="#FF4F40" style="fill:#FF4F40;fill:color(display-p3 1.0000 0.3098 0.2510);fill-opacity:1;"/>
<path d="M96.9074 106.308C102.501 106.308 107.114 105.186 108.676 103.599V103.214C108.17 103.861 107.075 104.47 105.506 104.956C103.212 105.667 100.158 106.059 96.9074 106.059C93.6573 106.059 90.6034 105.667 88.3086 104.956C86.5208 104.402 85.3479 103.689 84.9603 102.942V103.4C86.322 105.092 91.083 106.309 96.9074 106.309V106.308Z" fill="#FF4F40" style="fill:#FF4F40;fill:color(display-p3 1.0000 0.3098 0.2510);fill-opacity:1;"/>
<path d="M96.9076 109.405C102.496 109.405 107.105 108.285 108.672 106.7V106.317C108.164 106.961 107.072 107.568 105.506 108.053C103.212 108.765 100.158 109.156 96.9076 109.156C93.6574 109.156 90.6035 108.765 88.3088 108.053C86.5234 107.5 85.353 106.789 84.9629 106.044V106.5C86.3271 108.191 91.0868 109.405 96.9076 109.405Z" fill="#FF4F40" style="fill:#FF4F40;fill:color(display-p3 1.0000 0.3098 0.2510);fill-opacity:1;"/>
<path d="M96.9077 112.752C102.491 112.752 107.097 111.634 108.667 110.051V109.669C108.158 110.311 107.067 110.916 105.507 111.399C103.212 112.111 100.158 112.503 96.9077 112.503C93.6575 112.503 90.6036 112.111 88.3089 111.399C86.5285 110.848 85.3581 110.138 84.9655 109.394V109.849C86.3334 111.538 91.0907 112.752 96.9077 112.752Z" fill="#FF4F40" style="fill:#FF4F40;fill:color(display-p3 1.0000 0.3098 0.2510);fill-opacity:1;"/>
<path d="M106.11 113.205V91.332L102.645 114.925C104.038 114.677 105.253 114.344 106.223 113.947C106.15 113.778 106.11 113.606 106.11 113.431V113.205Z" fill="#FF4F40" style="fill:#FF4F40;fill:color(display-p3 1.0000 0.3098 0.2510);fill-opacity:1;"/>
<path d="M117.981 111.082C112.062 111.082 107.259 109.783 106.11 108.001V110.692C106.253 111.571 107.479 112.432 109.527 113.078C111.783 113.79 114.786 114.18 117.981 114.18C121.177 114.18 124.18 113.788 126.436 113.078C128.617 112.392 129.866 111.46 129.866 110.521L129.864 107.984C128.737 109.774 123.92 111.083 117.98 111.083L117.981 111.082Z" fill="#C3FF34" style="fill:#C3FF34;fill:color(display-p3 0.7647 1.0000 0.2039);fill-opacity:1;"/>
<path d="M117.981 97.9441C112.062 97.9441 107.259 96.6451 106.11 94.8641V97.5549C106.253 98.4336 107.479 99.2951 109.527 99.9408C111.783 100.652 114.786 101.043 117.981 101.043C121.177 101.043 124.18 100.651 126.436 99.9408C128.512 99.2864 129.743 98.4101 129.858 97.5189L129.855 94.8616C128.711 96.6439 123.905 97.9453 117.981 97.9453V97.9441Z" fill="#C3FF34" style="fill:#C3FF34;fill:color(display-p3 0.7647 1.0000 0.2039);fill-opacity:1;"/>
<path d="M117.981 104.637C112.062 104.637 107.259 103.338 106.11 101.557V104.248C106.253 105.126 107.479 105.988 109.527 106.634C111.783 107.345 114.786 107.735 117.981 107.735C121.177 107.735 124.18 107.344 126.436 106.634C128.542 105.97 129.781 105.078 129.863 104.172L129.86 101.547C128.725 103.333 123.914 104.638 117.981 104.638V104.637Z" fill="#C3FF34" style="fill:#C3FF34;fill:color(display-p3 0.7647 1.0000 0.2039);fill-opacity:1;"/>
<path d="M109.527 96.5935C111.783 97.3049 114.786 97.6953 117.981 97.6953C121.177 97.6953 124.18 97.3037 126.436 96.5935C128.496 95.944 129.726 95.0764 129.855 94.1914L129.853 91.332C129.853 93.3969 124.538 95.0714 117.981 95.0714C111.425 95.0714 106.11 93.3969 106.11 91.332V94.2088C106.253 95.0875 107.479 95.949 109.527 96.5947V96.5935Z" fill="#C3FF34" style="fill:#C3FF34;fill:color(display-p3 0.7647 1.0000 0.2039);fill-opacity:1;"/>
<path d="M117.981 101.29C112.062 101.29 107.259 99.9907 106.11 98.2096V100.9C106.253 101.779 107.479 102.641 109.527 103.286C111.783 103.998 114.786 104.388 117.981 104.388C121.177 104.388 124.18 103.997 126.436 103.286C128.527 102.628 129.762 101.743 129.86 100.845L129.858 98.2034C128.717 99.9882 123.909 101.291 117.981 101.291V101.29Z" fill="#C3FF34" style="fill:#C3FF34;fill:color(display-p3 0.7647 1.0000 0.2039);fill-opacity:1;"/>
<path d="M129.868 111.325C128.745 113.118 123.926 114.428 117.981 114.428C112.036 114.428 107.259 113.129 106.11 111.348V113.429C106.11 113.604 106.149 113.776 106.223 113.944C107.021 115.765 111.98 117.168 117.981 117.168C124.538 117.168 129.853 115.494 129.853 113.429C129.853 113.353 129.869 113.202 129.869 113.202V111.324L129.868 111.325Z" fill="#C3FF34" style="fill:#C3FF34;fill:color(display-p3 0.7647 1.0000 0.2039);fill-opacity:1;"/>
<path d="M117.981 107.982C112.062 107.982 107.259 106.683 106.11 104.902V107.345C106.253 108.224 107.479 109.085 109.527 109.731C111.783 110.443 114.786 110.833 117.981 110.833C121.177 110.833 124.18 110.441 126.436 109.731C128.573 109.058 129.815 108.15 129.864 107.23V104.889C128.731 106.677 123.918 107.984 117.981 107.984V107.982Z" fill="#C3FF34" style="fill:#C3FF34;fill:color(display-p3 0.7647 1.0000 0.2039);fill-opacity:1;"/>
<path d="M117.981 93.8544C123.254 93.8544 127.528 92.7251 127.528 91.3321C127.528 89.9391 123.254 88.8098 117.981 88.8098C112.709 88.8098 108.435 89.9391 108.435 91.3321C108.435 92.7251 112.709 93.8544 117.981 93.8544Z" fill="#A3DC1A" style="fill:#A3DC1A;fill:color(display-p3 0.6392 0.8627 0.1020);fill-opacity:1;"/>
<path d="M117.981 95.0718C124.538 95.0718 129.853 93.3973 129.853 91.3324C129.853 89.2675 124.538 87.593 117.981 87.593C111.425 87.593 106.11 89.2675 106.11 91.3324C106.11 93.3973 111.425 95.0718 117.981 95.0718ZM117.981 88.4656C122.844 88.4656 127.874 89.5377 127.874 91.3324C127.874 93.1271 122.844 94.1993 117.981 94.1993C113.119 94.1993 108.089 93.1271 108.089 91.3324C108.089 89.5377 113.119 88.4656 117.981 88.4656Z" fill="#A3DC1A" style="fill:#A3DC1A;fill:color(display-p3 0.6392 0.8627 0.1020);fill-opacity:1;"/>
<path d="M117.981 94.1983C122.844 94.1983 127.874 93.1262 127.874 91.3314C127.874 89.5367 122.844 88.4646 117.981 88.4646C113.119 88.4646 108.089 89.5367 108.089 91.3314C108.089 93.1262 113.119 94.1983 117.981 94.1983ZM117.981 88.8092C123.692 88.8092 127.528 90.1131 127.528 91.3314C127.528 92.5498 123.692 93.8537 117.981 93.8537C112.271 93.8537 108.435 92.5498 108.435 91.3314C108.435 90.1131 112.271 88.8092 117.981 88.8092Z" fill="#D9FF6F" style="fill:#D9FF6F;fill:color(display-p3 0.8510 1.0000 0.4353);fill-opacity:1;"/>
<path d="M126.436 96.5944C124.18 97.3059 121.177 97.6963 117.981 97.6963C114.786 97.6963 111.783 97.3046 109.527 96.5944C107.479 95.9499 106.253 95.0885 106.11 94.2085V94.8642C107.259 96.6453 112.061 97.9442 117.981 97.9442C123.902 97.9442 128.711 96.6428 129.855 94.8605V94.1912C129.726 95.0761 128.496 95.945 126.436 96.5932V96.5944Z" fill="#A3DC1A" style="fill:#A3DC1A;fill:color(display-p3 0.6392 0.8627 0.1020);fill-opacity:1;"/>
<path d="M126.436 99.9409C124.18 100.652 121.177 101.043 117.981 101.043C114.786 101.043 111.783 100.651 109.527 99.9409C107.479 99.2964 106.253 98.435 106.11 97.555V98.2107C107.259 99.9918 112.061 101.291 117.981 101.291C123.902 101.291 128.717 99.988 129.858 98.2032V97.5178C129.743 98.4102 128.512 99.2865 126.436 99.9397V99.9409Z" fill="#A3DC1A" style="fill:#A3DC1A;fill:color(display-p3 0.6392 0.8627 0.1020);fill-opacity:1;"/>
<path d="M126.436 103.288C124.18 103.999 121.177 104.39 117.981 104.39C114.786 104.39 111.783 103.998 109.527 103.288C107.479 102.643 106.253 101.782 106.11 100.902V101.557C107.259 103.338 112.061 104.637 117.981 104.637C123.902 104.637 128.725 103.332 129.86 101.546V100.845C129.762 101.743 128.527 102.628 126.436 103.286V103.288Z" fill="#A3DC1A" style="fill:#A3DC1A;fill:color(display-p3 0.6392 0.8627 0.1020);fill-opacity:1;"/>
<path d="M126.436 106.634C124.18 107.346 121.177 107.736 117.981 107.736C114.786 107.736 111.783 107.344 109.527 106.634C107.479 105.99 106.253 105.128 106.11 104.248V104.904C107.259 106.685 112.061 107.984 117.981 107.984C123.902 107.984 128.731 106.678 129.863 104.889V104.171C129.781 105.077 128.542 105.97 126.436 106.633V106.634Z" fill="#A3DC1A" style="fill:#A3DC1A;fill:color(display-p3 0.6392 0.8627 0.1020);fill-opacity:1;"/>
<path d="M126.436 109.732C124.18 110.444 121.177 110.834 117.981 110.834C114.786 110.834 111.783 110.443 109.527 109.732C107.479 109.088 106.253 108.226 106.11 107.346V108.002C107.259 109.783 112.061 111.082 117.981 111.082C123.902 111.082 128.737 109.775 129.865 107.984V107.23C129.817 108.15 128.573 109.058 126.436 109.731V109.732Z" fill="#A3DC1A" style="fill:#A3DC1A;fill:color(display-p3 0.6392 0.8627 0.1020);fill-opacity:1;"/>
<path d="M126.436 113.078C124.18 113.789 121.177 114.18 117.981 114.18C114.786 114.18 111.783 113.788 109.527 113.078C107.479 112.433 106.253 111.572 106.11 110.692V111.348C107.259 113.129 112.061 114.428 117.981 114.428C123.902 114.428 128.745 113.118 129.868 111.325V110.52C129.868 111.458 128.618 112.39 126.437 113.077L126.436 113.078Z" fill="#A3DC1A" style="fill:#A3DC1A;fill:color(display-p3 0.6392 0.8627 0.1020);fill-opacity:1;"/>
<g filter="url(#filter0_d_2540_20466)">
<path d="M124.659 34.2447C120.343 35.3205 119.902 35.8423 119.047 41.8375C118.324 35.825 117.858 35.3639 113.435 34.2447C117.609 32.8974 118.034 32.3632 119.047 26.6519C119.967 32.3112 120.379 32.8578 124.659 34.2447Z" fill="white" style="fill:white;fill-opacity:1;"/>
</g>
<g filter="url(#filter1_d_2540_20466)">
<path d="M69.7195 66.4701C63.5111 67.6884 62.8775 68.2784 61.6462 75.0656C60.6063 68.2598 59.9354 67.7368 53.5729 66.4701C59.5763 64.9455 60.1864 64.3407 61.6462 57.8745C62.9681 64.2812 63.562 64.9009 69.7195 66.4701Z" fill="white" style="fill:white;fill-opacity:1;"/>
</g>
<g filter="url(#filter2_d_2540_20466)">
<path d="M144.926 103.477C139.87 104.875 139.356 105.553 138.353 113.346C137.507 105.532 136.961 104.931 131.781 103.477C136.669 101.726 137.166 101.032 138.353 93.6086C139.431 100.964 139.914 101.675 144.926 103.477Z" fill="white" style="fill:white;fill-opacity:1;"/>
</g>
<g filter="url(#filter3_d_2540_20466)">
<path d="M122.944 50.5628C121.197 51.7068 120.66 52.5918 119.942 55.5231C119.405 52.6525 118.923 51.8159 117.242 50.8367C118.99 49.6927 119.526 48.8078 120.244 45.8765C120.781 48.747 121.263 49.5836 122.944 50.5628Z" fill="white" style="fill:white;fill-opacity:1;"/>
</g>
<g filter="url(#filter4_d_2540_20466)">
<path d="M147.668 109.809C145.921 110.953 145.384 111.838 144.666 114.769C144.129 111.898 143.647 111.062 141.966 110.083C143.715 108.939 144.25 108.054 144.968 105.122C145.505 107.993 145.987 108.829 147.668 109.809Z" fill="white" style="fill:white;fill-opacity:1;"/>
</g>
<defs>
<filter id="filter0_d_2540_20466" x="113.435" y="26.6519" width="11.224" height="16.1858" filterUnits="userSpaceOnUse" color-interpolation-filters="sRGB">
<feFlood flood-opacity="0" result="BackgroundImageFix"/>
<feColorMatrix in="SourceAlpha" type="matrix" values="0 0 0 0 0 0 0 0 0 0 0 0 0 0 0 0 0 0 127 0" result="hardAlpha"/>
<feOffset dy="1"/>
<feComposite in2="hardAlpha" operator="out"/>
<feColorMatrix type="matrix" values="0 0 0 0 0 0 0 0 0 0 0 0 0 0 0 0 0 0 0.2 0"/>
<feBlend mode="normal" in2="BackgroundImageFix" result="effect1_dropShadow_2540_20466"/>
<feBlend mode="normal" in="SourceGraphic" in2="effect1_dropShadow_2540_20466" result="shape"/>
</filter>
<filter id="filter1_d_2540_20466" x="53.5729" y="57.8745" width="16.1465" height="18.1912" filterUnits="userSpaceOnUse" color-interpolation-filters="sRGB">
<feFlood flood-opacity="0" result="BackgroundImageFix"/>
<feColorMatrix in="SourceAlpha" type="matrix" values="0 0 0 0 0 0 0 0 0 0 0 0 0 0 0 0 0 0 127 0" result="hardAlpha"/>
<feOffset dy="1"/>
<feComposite in2="hardAlpha" operator="out"/>
<feColorMatrix type="matrix" values="0 0 0 0 0 0 0 0 0 0 0 0 0 0 0 0 0 0 0.2 0"/>
<feBlend mode="normal" in2="BackgroundImageFix" result="effect1_dropShadow_2540_20466"/>
<feBlend mode="normal" in="SourceGraphic" in2="effect1_dropShadow_2540_20466" result="shape"/>
</filter>
<filter id="filter2_d_2540_20466" x="131.781" y="93.6086" width="13.1448" height="20.7368" filterUnits="userSpaceOnUse" color-interpolation-filters="sRGB">
<feFlood flood-opacity="0" result="BackgroundImageFix"/>
<feColorMatrix in="SourceAlpha" type="matrix" values="0 0 0 0 0 0 0 0 0 0 0 0 0 0 0 0 0 0 127 0" result="hardAlpha"/>
<feOffset dy="1"/>
<feComposite in2="hardAlpha" operator="out"/>
<feColorMatrix type="matrix" values="0 0 0 0 0 0 0 0 0 0 0 0 0 0 0 0 0 0 0.2 0"/>
<feBlend mode="normal" in2="BackgroundImageFix" result="effect1_dropShadow_2540_20466"/>
<feBlend mode="normal" in="SourceGraphic" in2="effect1_dropShadow_2540_20466" result="shape"/>
</filter>
<filter id="filter3_d_2540_20466" x="117.242" y="45.8765" width="5.70148" height="10.6465" filterUnits="userSpaceOnUse" color-interpolation-filters="sRGB">
<feFlood flood-opacity="0" result="BackgroundImageFix"/>
<feColorMatrix in="SourceAlpha" type="matrix" values="0 0 0 0 0 0 0 0 0 0 0 0 0 0 0 0 0 0 127 0" result="hardAlpha"/>
<feOffset dy="1"/>
<feComposite in2="hardAlpha" operator="out"/>
<feColorMatrix type="matrix" values="0 0 0 0 0 0 0 0 0 0 0 0 0 0 0 0 0 0 0.2 0"/>
<feBlend mode="normal" in2="BackgroundImageFix" result="effect1_dropShadow_2540_20466"/>
<feBlend mode="normal" in="SourceGraphic" in2="effect1_dropShadow_2540_20466" result="shape"/>
</filter>
<filter id="filter4_d_2540_20466" x="141.966" y="105.122" width="5.70148" height="10.6465" filterUnits="userSpaceOnUse" color-interpolation-filters="sRGB">
<feFlood flood-opacity="0" result="BackgroundImageFix"/>
<feColorMatrix in="SourceAlpha" type="matrix" values="0 0 0 0 0 0 0 0 0 0 0 0 0 0 0 0 0 0 127 0" result="hardAlpha"/>
<feOffset dy="1"/>
<feComposite in2="hardAlpha" operator="out"/>
<feColorMatrix type="matrix" values="0 0 0 0 0 0 0 0 0 0 0 0 0 0 0 0 0 0 0.2 0"/>
<feBlend mode="normal" in2="BackgroundImageFix" result="effect1_dropShadow_2540_20466"/>
<feBlend mode="normal" in="SourceGraphic" in2="effect1_dropShadow_2540_20466" result="shape"/>
</filter>
</defs>
</svg>
