<svg width="180" height="120" viewBox="0 0 180 120" fill="none" xmlns="http://www.w3.org/2000/svg">
<path d="M53.5579 97.6139L106.276 111.078C97.4131 107.092 93.2302 99.0263 82.0503 94.7509C66.7186 88.8885 53.5579 97.6139 53.5579 97.6139Z" fill="#004E60" style="fill:#004E60;fill:color(display-p3 0.0000 0.3059 0.3765);fill-opacity:1;"/>
<path d="M141.613 22.3567C133.608 22.3567 132.658 29.7187 132.658 29.7187C132.658 29.7187 123.704 32.309 118.548 27.5373C112.197 21.66 109.186 17.176 99.9598 15.131C90.7337 13.086 81.7789 20.448 81.7789 20.448L78.4535 29.5414L81.7789 20.4616C81.7789 20.4616 86.6729 17.4582 92.4622 17.1828C92.952 17.1596 93.4486 17.1555 93.9493 17.1746C92.7757 25.6941 90.9074 35.3711 86.9347 42.9826C83.2049 50.1278 76.1279 56.1347 68.2803 57.3535L64.5736 67.4885L53.5565 97.6114C53.5565 97.6114 66.7173 88.8861 82.0489 94.7484C93.2288 99.0239 97.4118 107.089 106.274 111.076C109.566 112.556 113.501 113.475 118.682 113.426C133.335 113.29 133.742 104.701 135.099 97.6114C138.392 80.4061 150.702 27.6723 150.702 27.6723C150.702 27.6723 149.617 22.3553 141.612 22.3553L141.613 22.3567Z" fill="#BBF6E2" style="fill:#BBF6E2;fill:color(display-p3 0.7333 0.9647 0.8863);fill-opacity:1;"/>
<path d="M86.9346 42.9865C90.9073 35.375 92.7756 25.6967 93.9492 17.1785C93.4486 17.1594 92.952 17.1635 92.4622 17.1867C86.6728 17.4621 81.7789 20.4655 81.7789 20.4655L78.4534 29.5454L68.321 57.2497L68.2816 57.3588C76.1292 56.1413 83.2062 50.1331 86.936 42.9879L86.9346 42.9865Z" fill="#D9FF6F" style="fill:#D9FF6F;fill:color(display-p3 0.8510 1.0000 0.4353);fill-opacity:1;"/>
<path d="M66.5653 84.5533L66.7919 85.0481C70.6953 83.2472 74.4604 82.4851 78.3028 82.7182C81.669 82.9213 85.0759 83.8648 89.0241 85.6876L89.2507 85.1927C85.2401 83.3412 81.7708 82.3828 78.3354 82.1742C74.4007 81.9356 70.5515 82.7141 66.5653 84.5533Z" fill="#68CDB5" style="fill:#68CDB5;fill:color(display-p3 0.4078 0.8039 0.7098);fill-opacity:1;"/>
<path d="M83.8657 64.7241C87.2319 64.9272 90.6388 65.872 94.587 67.6934C97.8609 69.204 100.671 71.5421 103.387 73.8039C104.388 74.6369 105.425 75.4999 106.471 76.3097C111.087 79.8844 115.268 81.6335 119.217 81.6335C119.572 81.6335 119.926 81.6199 120.278 81.5913L120.234 81.0473C116.115 81.3772 111.72 79.6881 106.802 75.8775C105.763 75.0732 104.732 74.2142 103.733 73.384C100.99 71.1004 98.1526 68.7391 94.8122 67.1985C90.8016 65.3471 87.3323 64.3887 83.8969 64.1801C79.9622 63.9415 76.1131 64.72 72.1268 66.5591L72.3534 67.0554C76.2569 65.2544 80.0219 64.4923 83.8644 64.7254L83.8657 64.7241Z" fill="#68CDB5" style="fill:#68CDB5;fill:color(display-p3 0.4078 0.8039 0.7098);fill-opacity:1;"/>
<path d="M141.613 22.3602C133.608 22.3602 132.658 29.7222 132.658 29.7222L129.566 42.7326C126.047 42.449 122.306 40.7462 118.199 37.5655C117.16 36.7612 116.128 35.9023 115.13 35.072C112.386 32.7884 109.549 30.4271 106.209 28.8865L105.982 29.3814C109.258 30.892 112.066 33.2301 114.784 35.4919C115.785 36.3249 116.82 37.1879 117.868 37.9977C122.028 41.2193 125.836 42.9575 129.438 43.2697L126.998 53.5425C123.082 53.6406 118.907 51.9324 114.264 48.3372C113.225 47.5329 112.194 46.674 111.195 45.8437C108.452 43.5601 105.615 41.1988 102.274 39.6582C98.2637 37.8068 94.7944 36.8484 91.3591 36.6398C87.4244 36.4012 83.5752 37.1797 79.589 39.0188L79.8156 39.5151C83.719 37.7141 87.4841 36.9534 91.3265 37.1852C94.6927 37.3883 98.0995 38.3331 102.048 40.1545C105.323 41.6651 108.132 44.0032 110.849 46.265C111.851 47.098 112.886 47.961 113.933 48.7708C118.549 52.3455 122.731 54.0946 126.68 54.0946C126.743 54.0946 126.805 54.0919 126.867 54.0905L124.923 62.2733C121.097 62.276 117.02 60.565 112.5 57.064C111.461 56.2596 110.43 55.4007 109.431 54.5704C106.688 52.2868 103.851 49.9255 100.511 48.385C96.4999 46.5336 93.0306 45.5751 89.5952 45.3665C85.6606 45.1279 81.8114 45.9064 77.8252 47.7456L78.0517 48.2418C81.9552 46.4408 85.7203 45.6787 89.5627 45.9119C92.9289 46.115 96.3357 47.0598 100.284 48.8812C103.559 50.3918 106.368 52.7299 109.085 54.9917C110.087 55.8247 111.122 56.6877 112.169 57.4975C116.738 61.0354 120.88 62.7845 124.793 62.82L122.69 71.668C118.685 71.8643 114.413 70.1615 109.65 66.4737C108.611 65.6693 107.579 64.8104 106.581 63.9802C103.837 61.6966 101 59.3353 97.66 57.7947C93.6493 55.9433 90.18 54.9849 86.7446 54.7763C82.81 54.5377 78.9608 55.3162 74.9746 57.1553L75.2011 57.6516C79.1046 55.8506 82.8697 55.0885 86.7121 55.3216C90.0783 55.5248 93.4851 56.4695 97.4334 58.291C100.709 59.8015 103.517 62.1397 106.235 64.4014C107.236 65.2344 108.271 66.0974 109.319 66.9072C113.935 70.4819 118.116 72.2311 122.064 72.2311C122.23 72.2311 122.394 72.227 122.558 72.2215L118.086 91.041L118.062 90.7329C113.943 91.0628 109.548 89.3737 104.63 85.5631C103.59 84.7588 102.559 83.8999 101.561 83.0696C98.8173 80.786 95.9803 78.4247 92.6399 76.8841C88.6292 75.0327 85.1599 74.0743 81.7245 73.8657C77.7899 73.6271 73.9407 74.4056 69.9545 76.2447L70.1811 76.7396C74.0845 74.9387 77.8496 74.1766 81.692 74.4097C85.0582 74.6128 88.465 75.5563 92.4133 77.379C95.6872 78.8896 98.4971 81.2277 101.213 83.4895C102.215 84.3225 103.251 85.1855 104.297 85.9953C108.913 89.57 113.095 91.3192 117.043 91.3192C117.373 91.3192 117.701 91.3055 118.028 91.281L116.78 96.5325C116.78 96.5325 123.157 93.3969 128.719 96.2599C132.05 97.975 133.533 100.569 134.186 102.374C134.549 100.788 134.8 99.1706 135.096 97.6232C138.389 80.4179 150.699 27.6841 150.699 27.6841C150.699 27.6841 149.614 22.367 141.609 22.367L141.613 22.3602Z" fill="#68CDB5" style="fill:#68CDB5;fill:color(display-p3 0.4078 0.8039 0.7098);fill-opacity:1;"/>
<path d="M85.4558 45.4963C82.9295 45.8099 80.4073 46.5529 77.8267 47.7431L78.0532 48.2394C80.4181 47.1487 82.7341 46.4411 85.0461 46.103C85.1858 45.9026 85.3229 45.7008 85.4558 45.4977V45.4963Z" fill="#BBF6E2" style="fill:#BBF6E2;fill:color(display-p3 0.7333 0.9647 0.8863);fill-opacity:1;"/>
<path d="M89.6605 36.6035C86.312 36.6512 83.0014 37.4461 79.5905 39.0193L79.817 39.5156C83.0882 38.0064 86.2617 37.2307 89.4665 37.1543C89.5329 36.9716 89.5967 36.7889 89.6618 36.6049L89.6605 36.6035Z" fill="#BBF6E2" style="fill:#BBF6E2;fill:color(display-p3 0.7333 0.9647 0.8863);fill-opacity:1;"/>
<path d="M150.427 26.886C147.727 36.3407 139.287 66.1705 135.559 82.4815C134.839 85.6322 134.01 88.806 132.399 91.6036C131.395 93.3473 130.045 94.9424 128.42 96.1026C128.521 96.1503 128.623 96.2007 128.724 96.2525C132.055 97.9676 133.537 100.562 134.19 102.367C134.554 100.78 134.805 99.1633 135.1 97.6159C138.393 80.4106 150.703 27.6767 150.703 27.6767C150.703 27.6767 150.638 27.3618 150.427 26.886Z" fill="#2EAFC0" style="fill:#2EAFC0;fill:color(display-p3 0.1804 0.6863 0.7529);fill-opacity:1;"/>
<path d="M35.795 57.8563L32.1575 57.5168L30.8726 57.3968L28.1142 57.1391C28.0247 57.131 27.9365 57.1187 27.847 57.1078L27.7615 57.0996L64.5737 67.4991L67.0349 60.7697L42.1434 58.448L35.7936 57.8549L35.795 57.8563Z" fill="#004E60" style="fill:#004E60;fill:color(display-p3 0.0000 0.3059 0.3765);fill-opacity:1;"/>
<path d="M84.8521 55.3652L85.1357 51.8682L87.9008 54.1177L90.5981 56.3113L79.2011 47.0406L77.7399 58.2759L84.8521 55.3652Z" fill="#FFD7F0" style="fill:#FFD7F0;fill:color(display-p3 1.0000 0.8431 0.9412);fill-opacity:1;"/>
<path d="M85.1357 51.8694L84.8522 55.3663L87.9009 54.1189L85.1357 51.8694Z" fill="#043540" style="fill:#043540;fill:color(display-p3 0.0157 0.2078 0.2510);fill-opacity:1;"/>
<path d="M78.3057 53.3739L78.2175 54.0502L36.2455 49.7652L35.985 54.4373L77.6246 58.3215L77.7399 58.2751L79.2012 47.0399L36.639 42.6922L36.2835 49.0849L78.3057 53.3739Z" fill="#FF945A" style="fill:#FF945A;fill:color(display-p3 1.0000 0.5804 0.3529);fill-opacity:1;"/>
<path d="M20.3548 47.1333C20.6927 49.5327 22.2367 51.695 24.3817 52.7952C25.2216 53.2301 26.1564 53.5137 27.1537 53.6078L28.1183 53.6977C28.2581 53.7236 29.8455 53.8641 30.0273 53.8831C30.2458 51.406 30.8563 44.5007 30.9893 42.1216L29.4235 41.9621L28.3517 41.8531C24.5554 41.4659 21.1485 43.9594 20.2408 47.545C20.2802 47.4087 20.3141 47.271 20.3562 47.136L20.3548 47.1333Z" fill="#FFD7F0" style="fill:#FFD7F0;fill:color(display-p3 1.0000 0.8431 0.9412);fill-opacity:1;"/>
<path d="M36.5548 49.086L36.2848 49.0655L36.6389 42.6933L35.3961 42.5665L31.049 42.1234L30.7356 45.7322L30.0273 53.8822L35.985 54.4384L36.2455 49.7663L78.2867 54.0621L78.3817 53.3546L36.5548 49.086Z" fill="#FFA9DF" style="fill:#FFA9DF;fill:color(display-p3 1.0000 0.6627 0.8745);fill-opacity:1;"/>
<path d="M84.8521 55.3638L87.9008 54.1163L84.8521 55.3638L77.7399 58.2745L77.6245 58.3209L77.7399 58.2745L77.2908 61.7238L77.3532 61.7292L90.5981 56.3099L84.574 58.7749L84.8521 55.3638Z" fill="#FFA9DF" style="fill:#FFA9DF;fill:color(display-p3 1.0000 0.6627 0.8745);fill-opacity:1;"/>
<path d="M84.8521 55.3638L84.574 58.7749L90.5981 56.3099L87.9008 54.1163L84.8521 55.3638Z" fill="#112231" style="fill:#112231;fill:color(display-p3 0.0667 0.1333 0.1922);fill-opacity:1;"/>
<path d="M77.6245 58.3229L35.9849 54.4387L35.7949 57.8552L42.1447 58.4469L77.2907 61.7258L77.7398 58.2765L77.6245 58.3229Z" fill="#FF4F40" style="fill:#FF4F40;fill:color(display-p3 1.0000 0.3098 0.2510);fill-opacity:1;"/>
<path d="M35.985 54.4387L30.0341 53.8824L29.9229 57.3003L29.7316 57.2826V57.2894C31.2579 57.4312 34.2347 57.7093 35.795 57.8552L35.985 54.4387Z" fill="#FF945A" style="fill:#FF945A;fill:color(display-p3 1.0000 0.5804 0.3529);fill-opacity:1;"/>
<path d="M29.7315 57.2824L29.9228 57.3001L30.0341 53.874L30.1616 53.8945C29.9798 53.8754 28.2485 53.7213 28.1169 53.6968L27.1523 53.6068C26.155 53.5141 25.2202 53.2305 24.3803 52.7943C22.2353 51.694 20.6913 49.5318 20.3534 47.1323C20.2707 47.4009 20.2028 47.6736 20.1458 47.949C20.1418 47.9694 20.1377 47.9899 20.1336 48.0103C20.0834 48.3007 20.0386 48.5897 20.0196 48.8856C19.7252 53.0192 22.7739 56.6307 26.8809 57.0138L27.8456 57.1038L29.7301 57.2796L29.7315 57.2824Z" fill="#FFA9DF" style="fill:#FFA9DF;fill:color(display-p3 1.0000 0.6627 0.8745);fill-opacity:1;"/>
<path d="M54.6025 6L52.4316 16.3614L43.6125 20.315L52.1603 23.4507L50.2608 34.0847L57.5874 25.9047L69.6628 29.8584L63.0145 21.133L71.1552 14.589L60.4366 14.998L54.6025 6Z" fill="#A3DC1A" style="fill:#A3DC1A;fill:color(display-p3 0.6392 0.8627 0.1020);fill-opacity:1;"/>
<path d="M64.3483 19.5619C64.4447 18.0281 64.138 16.3103 63.3429 14.8884L61.2467 14.9688C62.2806 16.1549 62.6835 17.9545 62.5886 19.4501C62.419 22.1304 60.9835 24.7317 58.8221 26.3104L60.8085 26.9607C62.1924 25.6737 63.2453 24.0132 63.8355 22.2095L63.016 21.1338L64.3008 20.1018C64.3212 19.9218 64.3388 19.7418 64.3497 19.5619H64.3483Z" fill="#68CDB5" style="fill:#68CDB5;fill:color(display-p3 0.4078 0.8039 0.7098);fill-opacity:1;"/>
<path d="M58.6457 26.2522C58.5344 24.169 58.1952 21.944 56.7978 20.2385C55.4193 18.5561 53.38 17.8459 51.3231 17.7818C52.1006 16.9542 52.9092 16.2221 53.7599 15.5718C54.7992 14.777 57.4165 13.066 59.7325 13.9126L58.4395 11.9181C56.7109 11.9085 54.8006 12.6134 52.9309 13.9822L52.433 16.3612L48.8022 17.989C48.7941 17.9985 48.7873 18.0067 48.7792 18.0163C48.752 18.0217 48.7249 18.0299 48.6978 18.0354L44.6478 19.8513C44.3913 20.0299 44.1417 20.2208 43.8961 20.4185L45.8947 21.1519C46.242 20.9229 46.6015 20.7116 46.9733 20.5248C46.7983 20.7947 46.6246 21.0729 46.4523 21.3564L48.1442 21.9768C48.6733 21.1288 49.2161 20.3421 49.7723 19.6141C52.3407 19.2215 54.4261 20.1294 55.4369 21.3633C56.5807 22.7593 56.8195 24.7198 56.9009 26.6707L57.5888 25.9032L58.6471 26.2495L58.6457 26.2522Z" fill="#68CDB5" style="fill:#68CDB5;fill:color(display-p3 0.4078 0.8039 0.7098);fill-opacity:1;"/>
<path d="M51.3829 27.809L51.0708 29.5527C52.0667 29.7722 53.0951 29.8458 54.1168 29.7804L56.0054 27.6713C54.5062 28.0994 52.8943 28.1553 51.3815 27.809H51.3829Z" fill="#68CDB5" style="fill:#68CDB5;fill:color(display-p3 0.4078 0.8039 0.7098);fill-opacity:1;"/>
<path d="M136.916 76.7837L135.739 75.6713L136.773 77.37L138.69 80.522C138.814 79.9576 138.939 79.3891 139.065 78.8151L136.917 76.7837H136.916Z" fill="#112231" style="fill:#112231;fill:color(display-p3 0.0667 0.1333 0.1922);fill-opacity:1;"/>
<path d="M135.195 83.0317L135.415 83.1053L137.94 83.9533C138.023 83.5702 138.107 83.1843 138.191 82.7944L135.435 83.0112L135.194 83.0303L135.195 83.0317Z" fill="#112231" style="fill:#112231;fill:color(display-p3 0.0667 0.1333 0.1922);fill-opacity:1;"/>
<path d="M152.426 76.4853L146.185 75.3946L144.15 69.6686L142.251 75.3946L135.738 75.6673L139.087 78.8343L140.351 80.0299L135.195 83.0293L138.254 82.7893L142.115 82.4839L141.572 88.8916L146.185 81.8023L152.291 84.1199L148.356 79.2119L152.426 76.4853Z" fill="#FFA9DF" style="fill:#FFA9DF;fill:color(display-p3 1.0000 0.6627 0.8745);fill-opacity:1;"/>
<path d="M150.61 77.2764C149.876 77.8858 149.155 78.5115 148.448 79.1496L150.842 77.5463L150.61 77.2764Z" fill="white" style="fill:white;fill-opacity:1;"/>
<path d="M143.522 83.6652L141.891 85.1349L141.841 85.7293L142.115 85.4825C142.02 85.6066 141.926 85.732 141.83 85.8561L141.758 86.7095C143.126 85.064 144.566 83.4812 146.077 81.9678L146.186 81.8002L146.23 81.8165C146.387 81.6597 146.543 81.503 146.702 81.3489L148.659 79.5847L148.368 79.2235C147.709 79.8206 147.06 80.4286 146.424 81.0503L145.303 82.0606C146.897 80.0483 148.516 78.0564 150.156 76.0864L149.695 76.006C147.6 78.5254 145.539 81.0803 143.523 83.6652H143.522Z" fill="white" style="fill:white;fill-opacity:1;"/>
<path d="M139.856 79.5611C141.7 77.5229 143.597 75.5284 145.543 73.587L145.393 73.1616C143.394 75.148 141.449 77.1889 139.557 79.2775L139.856 79.5598V79.5611Z" fill="white" style="fill:white;fill-opacity:1;"/>
<path d="M136.591 75.6316L136.434 76.3256L136.779 76.6514L137.013 75.6139L136.591 75.6316Z" fill="white" style="fill:white;fill-opacity:1;"/>
<path d="M143.766 77.9395C142.71 79.4623 141.69 81.0111 140.721 82.5926L141.225 82.553C142.354 80.7234 143.553 78.9361 144.795 77.1829C145.55 76.6321 146.311 76.0867 147.077 75.5496L146.509 75.45C146.187 75.6777 145.864 75.9068 145.542 76.1372C145.744 75.8577 145.949 75.5796 146.153 75.3015L145.987 74.8365C145.486 75.5169 144.99 76.2012 144.5 76.8911C142.017 78.7043 139.586 80.5912 137.216 82.5462C137.623 82.0731 138.035 81.6042 138.447 81.1365L137.338 81.7827C137.005 82.1658 136.674 82.5517 136.346 82.9375L137.495 82.8475C139.542 81.1597 141.635 79.5223 143.766 77.9395Z" fill="white" style="fill:white;fill-opacity:1;"/>
<path d="M135.195 83.0294L135.334 83.0185L135.353 82.9395L135.195 83.0294Z" fill="white" style="fill:white;fill-opacity:1;"/>
<path d="M157.732 69.6638C160.089 69.6638 162 67.7435 162 65.3747C162 63.006 160.089 61.0857 157.732 61.0857C155.374 61.0857 153.463 63.006 153.463 65.3747C153.463 67.7435 155.374 69.6638 157.732 69.6638Z" fill="#004E60" style="fill:#004E60;fill:color(display-p3 0.0000 0.3059 0.3765);fill-opacity:1;"/>
</svg>
